<svg xmlns="http://www.w3.org/2000/svg" version="1.1" xlink="http://www.w3.org/1999/xlink" xmlns:svgjs="http://svgjs.com/svgjs" width="100%" height="100%" viewBox="1.7799999713897705 -42.150001525878906 462 59.93000030517578"><g fill="url(#SvgjsLinearGradient1159)"><path d="M35.33 -36.01C31.57 -39.67 26.54 -41.49 20.21 -41.49L10.02 -41.49L2.61 -41.73C2.05 -41.73 1.78 -41.45 1.78 -40.9C1.78 -40.47 2 -40.21 2.43 -40.13L4.15 -39.95C5.97 -39.79 6.88 -39 6.88 -37.58L6.88 -3.85C6.88 -3.14 6.62 -2.58 6.11 -2.16C5.59 -1.75 4.94 -1.5 4.15 -1.42L2.43 -1.3C2 -1.3 1.78 -1.04 1.78 -0.5C1.78 0.03 2.05 0.3 2.61 0.3L10.02 0L20.21 0C26.26 0 31.23 -2.06 35.12 -6.19C39.01 -10.32 40.96 -15.41 40.96 -21.46C40.96 -27.5 39.08 -32.36 35.33 -36.01ZM31.89 -32.6C34.26 -28.89 35.45 -24.54 35.45 -19.56C35.45 -14.58 34.08 -10.53 31.36 -7.41C28.63 -4.29 24.99 -2.73 20.45 -2.73L14.82 -2.73C13.95 -2.73 13.25 -2.97 12.71 -3.47C12.18 -3.96 11.91 -4.62 11.91 -5.45L11.91 -35.98C11.91 -36.89 12.18 -37.58 12.71 -38.06C13.25 -38.53 13.95 -38.77 14.82 -38.77L20.15 -38.77C22.76 -38.77 25.07 -38.21 27.09 -37.11C29.1 -36 30.71 -34.5 31.89 -32.6Z M66.86 -16.3C66.43 -16.3 66.27 -16.5 66.39 -16.89L73.44 -35.15L80.5 -17.01C80.66 -16.54 80.52 -16.3 80.08 -16.3ZM61.35 -3.91L64.85 -12.98C65.01 -13.38 65.32 -13.57 65.8 -13.57L81.15 -13.57C81.66 -13.57 81.98 -13.38 82.1 -12.98L85.6 -3.91C85.71 -3.68 85.77 -3.4 85.77 -3.08C85.77 -2.77 85.6 -2.43 85.27 -2.07C84.93 -1.72 84.51 -1.52 83.99 -1.48L82.63 -1.36C82.16 -1.32 81.92 -1.03 81.92 -0.47C81.92 0 82.2 0.24 82.75 0.24L88.86 0L95.67 0.24C96.23 0.24 96.5 -0.06 96.5 -0.65C96.5 -0.81 96.44 -0.97 96.32 -1.13C96.21 -1.28 96.07 -1.36 95.91 -1.36L94.66 -1.48C92.93 -1.64 91.8 -2.45 91.29 -3.91L76.11 -41.43C75.91 -41.91 75.43 -42.15 74.66 -42.15C73.89 -42.15 73.42 -41.91 73.27 -41.43L58.03 -3.91C57.44 -2.49 56.29 -1.68 54.59 -1.48L53.47 -1.36C53.03 -1.36 52.82 -1.1 52.82 -0.56C52.82 -0.03 53.09 0.24 53.65 0.24L59.04 0L64.2 0.24C64.79 0.24 65.09 -0.04 65.09 -0.59C65.09 -1.03 64.83 -1.28 64.31 -1.36L63.01 -1.48C62.46 -1.52 62.02 -1.73 61.71 -2.1C61.39 -2.48 61.23 -2.82 61.23 -3.11C61.23 -3.41 61.27 -3.68 61.35 -3.91Z M137.22 -30.65C137.22 -28.16 136.31 -26.15 134.47 -24.63C132.63 -23.11 130.35 -22.35 127.62 -22.35L120.33 -22.35C119.9 -22.35 119.68 -22.6 119.68 -23.12L119.68 -36.45C119.68 -38.04 120.47 -38.83 122.05 -38.83L127.62 -38.83C130.39 -38.83 132.68 -38.09 134.5 -36.6C136.32 -35.12 137.22 -33.14 137.22 -30.65ZM129.64 -41.49L118.55 -41.49L110.37 -41.73C109.82 -41.73 109.54 -41.45 109.54 -40.9C109.54 -40.47 109.76 -40.21 110.19 -40.13L111.91 -39.95C113.73 -39.79 114.64 -39 114.64 -37.58L114.64 -3.91C114.64 -2.41 113.83 -1.6 112.21 -1.48L110.49 -1.36C110.02 -1.32 109.78 -1.03 109.78 -0.47C109.86 0 110.16 0.24 110.67 0.24L117.25 0L124.66 0.24C125.21 0.24 125.49 -0.03 125.49 -0.56C125.49 -1.1 125.27 -1.36 124.84 -1.36L122.35 -1.48C121.6 -1.52 120.96 -1.76 120.45 -2.19C119.94 -2.63 119.68 -3.2 119.68 -3.91L119.68 -18.97C119.68 -19.44 119.98 -19.68 120.57 -19.68L124.84 -19.68L124.9 -19.68C125.84 -19.68 126.71 -19.07 127.5 -17.84L137.52 -1.19C138.03 -0.4 138.76 0 139.68 0C140.61 0 142.97 0.08 146.77 0.24C147.36 0.24 147.66 -0.04 147.66 -0.59C147.66 -1.03 147.4 -1.28 146.89 -1.36L145.82 -1.48C144.04 -1.72 142.74 -2.53 141.91 -3.91L132.96 -18.14C132.48 -18.89 131.83 -19.4 131 -19.68L131.06 -19.8C133.98 -19.88 136.64 -20.95 139.03 -23.03C141.42 -25.1 142.62 -27.73 142.62 -30.91C142.62 -34.09 141.4 -36.65 138.97 -38.59C136.54 -40.53 133.43 -41.49 129.64 -41.49Z M189.03 -39.48C189.03 -39 188.78 -38.49 188.26 -37.94L175.81 -23.77C174.83 -22.58 173.86 -21.99 172.91 -21.99L171.37 -21.99C171.01 -21.99 170.83 -22.23 170.83 -22.7L170.83 -37.58C170.83 -39.04 171.37 -39.87 172.43 -40.07L172.97 -40.13C173.48 -40.21 173.74 -40.5 173.74 -40.99C173.74 -41.48 173.44 -41.73 172.85 -41.73L168.23 -41.49L161.53 -41.73C160.97 -41.73 160.7 -41.45 160.7 -40.9C160.7 -40.47 160.92 -40.21 161.35 -40.13L163.07 -39.95C164.89 -39.72 165.8 -38.92 165.8 -37.58L165.8 -3.91C165.8 -2.49 164.99 -1.68 163.37 -1.48L162.36 -1.36C161.88 -1.28 161.65 -1 161.65 -0.5C161.65 -0.01 161.94 0.24 162.54 0.24L168.4 0L172.85 0.24C173.4 0.24 173.68 -0.04 173.68 -0.59C173.68 -1.03 173.46 -1.28 173.03 -1.36L172.43 -1.42C171.37 -1.54 170.83 -2.37 170.83 -3.91L170.83 -18.61C170.83 -19.05 170.97 -19.26 171.25 -19.26L172.67 -19.26L172.73 -19.26C173.6 -19.26 174.53 -18.67 175.52 -17.49L189.68 -1.3C190.47 -0.43 191.26 0 192.03 0C192.8 0 195.51 0.04 200.18 0.12C200.73 0.12 201.01 -0.13 201.01 -0.62C201.01 -1.12 200.75 -1.4 200.24 -1.48L198.52 -1.6C197.37 -1.68 196.07 -2.49 194.6 -4.03L180.02 -19.86C179.47 -20.53 178.78 -21.04 177.95 -21.4C178.78 -21.75 179.47 -22.25 180.02 -22.88L193.06 -37.58C194.33 -39.04 195.63 -39.83 196.98 -39.95L198.75 -40.13C199.27 -40.13 199.52 -40.4 199.52 -40.93C199.52 -41.46 199.23 -41.73 198.64 -41.73L192.83 -41.49L189.51 -41.67C188.99 -41.67 188.74 -41.45 188.74 -41.02Z M265.26 -29.88C265.26 -27.19 264.37 -24.98 262.59 -23.27C260.82 -21.55 258.29 -20.69 255.01 -20.69L249.73 -20.69C249.3 -20.69 249.08 -20.94 249.08 -21.46L249.08 -36.51C249.08 -38.09 249.87 -38.89 251.45 -38.89L255.01 -38.89C258.29 -38.89 260.82 -38.06 262.59 -36.4C264.37 -34.74 265.26 -32.56 265.26 -29.88ZM256.25 -41.49L247.95 -41.49L239.77 -41.73C239.22 -41.73 238.94 -41.45 238.94 -40.9C238.94 -40.47 239.16 -40.21 239.6 -40.13L241.31 -39.95C243.13 -39.79 244.04 -39 244.04 -37.58L244.04 -3.91C244.04 -2.41 243.23 -1.6 241.61 -1.48L239.89 -1.36C239.42 -1.32 239.18 -1.03 239.18 -0.47C239.18 0 239.48 0.24 240.07 0.24L246.65 0L254.06 0.24C254.61 0.24 254.89 -0.03 254.89 -0.56C254.89 -1.1 254.67 -1.36 254.24 -1.36L251.75 -1.48C251 -1.52 250.36 -1.76 249.85 -2.19C249.34 -2.63 249.08 -3.2 249.08 -3.91L249.08 -17.25C249.08 -17.72 249.38 -17.96 249.97 -17.96L256.96 -17.96C261.15 -17.96 264.49 -19.11 266.98 -21.4C269.47 -23.69 270.72 -26.57 270.72 -30.02C270.72 -33.48 269.44 -36.26 266.89 -38.35C264.34 -40.45 260.8 -41.49 256.25 -41.49Z M294.25 -16.3C293.81 -16.3 293.66 -16.5 293.77 -16.89L300.83 -35.15L307.88 -17.01C308.04 -16.54 307.9 -16.3 307.47 -16.3ZM288.74 -3.91L292.23 -12.98C292.39 -13.38 292.71 -13.57 293.18 -13.57L308.53 -13.57C309.05 -13.57 309.36 -13.38 309.48 -12.98L312.98 -3.91C313.1 -3.68 313.16 -3.4 313.16 -3.08C313.16 -2.77 312.99 -2.43 312.65 -2.07C312.32 -1.72 311.89 -1.52 311.38 -1.48L310.02 -1.36C309.54 -1.32 309.3 -1.03 309.3 -0.47C309.3 0 309.58 0.24 310.13 0.24L316.24 0L323.06 0.24C323.61 0.24 323.89 -0.06 323.89 -0.65C323.89 -0.81 323.83 -0.97 323.71 -1.13C323.59 -1.28 323.45 -1.36 323.29 -1.36L322.05 -1.48C320.31 -1.64 319.18 -2.45 318.67 -3.91L303.49 -41.43C303.3 -41.91 302.81 -42.15 302.04 -42.15C301.27 -42.15 300.81 -41.91 300.65 -41.43L285.42 -3.91C284.82 -2.49 283.68 -1.68 281.98 -1.48L280.85 -1.36C280.42 -1.36 280.2 -1.1 280.2 -0.56C280.2 -0.03 280.48 0.24 281.03 0.24L286.42 0L291.58 0.24C292.17 0.24 292.47 -0.04 292.47 -0.59C292.47 -1.03 292.21 -1.28 291.7 -1.36L290.39 -1.48C289.84 -1.52 289.41 -1.73 289.09 -2.1C288.77 -2.48 288.62 -2.82 288.62 -3.11C288.62 -3.41 288.66 -3.68 288.74 -3.91Z M345.94 -37.58C345.94 -38.89 346.73 -39.68 348.31 -39.95L349.32 -40.13C349.83 -40.17 350.09 -40.47 350.09 -41.02C350.09 -41.49 349.79 -41.73 349.2 -41.73L343.33 -41.49L336.63 -41.73C336.08 -41.73 335.8 -41.45 335.8 -40.9C335.8 -40.47 336.02 -40.21 336.45 -40.13L338.17 -39.95C339.99 -39.79 340.9 -39 340.9 -37.58L340.9 3.32C340.9 7.39 339.91 10.47 337.93 12.57C337.38 13.24 336.1 14.29 334.08 15.71C333.8 15.91 333.67 16.1 333.67 16.3C333.67 16.5 333.8 16.85 334.08 17.37C334.24 17.64 334.57 17.78 335.06 17.78C335.55 17.78 336.67 17.23 338.41 16.12C340.78 14.54 342.63 12.52 343.95 10.05C345.27 7.58 345.94 4.33 345.94 0.3Z M403.41 -36.19C399.63 -40.16 394.63 -42.15 388.41 -42.15C382.18 -42.15 377.16 -40.12 373.32 -36.07C369.49 -32.02 367.57 -26.9 367.57 -20.72C367.57 -14.53 369.49 -9.42 373.32 -5.39C377.16 -1.36 382.14 0.65 388.29 0.65C394.43 0.65 399.43 -1.37 403.29 -5.42C407.14 -9.47 409.07 -14.62 409.07 -20.87C409.07 -27.11 407.18 -32.22 403.41 -36.19ZM400.06 -32.84C402.35 -28.93 403.49 -24.36 403.49 -19.15C403.49 -13.93 402.18 -9.78 399.55 -6.7C396.92 -3.62 393.26 -2.07 388.56 -2.07C385.91 -2.07 383.56 -2.7 381.5 -3.94C379.45 -5.19 377.85 -6.84 376.7 -8.89C374.33 -13.04 373.14 -17.74 373.14 -23C373.14 -28.06 374.46 -32.06 377.09 -35C379.71 -37.95 383.44 -39.42 388.26 -39.42C390.95 -39.42 393.3 -38.83 395.31 -37.64C397.33 -36.45 398.91 -34.85 400.06 -32.84Z M453.35 -30.65C453.35 -28.16 452.43 -26.15 450.59 -24.63C448.75 -23.11 446.47 -22.35 443.74 -22.35L436.45 -22.35C436.02 -22.35 435.8 -22.6 435.8 -23.12L435.8 -36.45C435.8 -38.04 436.59 -38.83 438.17 -38.83L443.74 -38.83C446.51 -38.83 448.8 -38.09 450.62 -36.6C452.44 -35.12 453.35 -33.14 453.35 -30.65ZM445.76 -41.49L434.67 -41.49L426.49 -41.73C425.94 -41.73 425.66 -41.45 425.66 -40.9C425.66 -40.47 425.88 -40.21 426.32 -40.13L428.03 -39.95C429.85 -39.79 430.76 -39 430.76 -37.58L430.76 -3.91C430.76 -2.41 429.95 -1.6 428.33 -1.48L426.61 -1.36C426.14 -1.32 425.9 -1.03 425.9 -0.47C425.98 0 426.28 0.24 426.79 0.24L433.37 0L440.78 0.24C441.33 0.24 441.61 -0.03 441.61 -0.56C441.61 -1.1 441.39 -1.36 440.96 -1.36L438.47 -1.48C437.72 -1.52 437.08 -1.76 436.57 -2.19C436.06 -2.63 435.8 -3.2 435.8 -3.91L435.8 -18.97C435.8 -19.44 436.1 -19.68 436.69 -19.68L440.96 -19.68L441.02 -19.68C441.96 -19.68 442.83 -19.07 443.62 -17.84L453.64 -1.19C454.16 -0.4 454.88 0 455.81 0C456.73 0 459.1 0.08 462.89 0.24C463.48 0.24 463.78 -0.04 463.78 -0.59C463.78 -1.03 463.52 -1.28 463.01 -1.36L461.94 -1.48C460.16 -1.72 458.86 -2.53 458.03 -3.91L449.08 -18.14C448.6 -18.89 447.95 -19.4 447.12 -19.68L447.18 -19.8C450.11 -19.88 452.76 -20.95 455.15 -23.03C457.54 -25.1 458.74 -27.73 458.74 -30.91C458.74 -34.09 457.52 -36.65 455.09 -38.59C452.66 -40.53 449.55 -41.49 445.76 -41.49Z"></path></g><defs><linearGradient gradientUnits="userSpaceOnUse" id="SvgjsLinearGradient1159" x1="102.29749989509585" y1="118.29749870300293" x2="363.26250004768366" y2="-142.66750144958493"><stop stop-color="#f5a623" offset="0"></stop><stop stop-color="#ffcb71" offset="1"></stop></linearGradient></defs></svg>
