<svg xmlns="http://www.w3.org/2000/svg" version="1.1" xlink="http://www.w3.org/1999/xlink" xmlns:svgjs="http://svgjs.com/svgjs" width="100%" height="100%" viewBox="0.5900000333786011 -14.819999694824219 280.3699951171875 18.939998626708984"><g fill="url(#SvgjsLinearGradient1165)"><path d="M17.11 -14.05L15.22 -14.05L13.06 -4.43L12.76 -2.55L12.38 -4.24L9.68 -14.05L9.47 -14.05L8.1 -14.05L5.33 -4.24L4.94 -2.59L4.67 -4.42L2.46 -14.05L0.59 -14.05L3.98 0L4.33 0L5.69 0L8.68 -10.26L8.9 -11.31L9.12 -10.26L12 0L12.37 0L13.71 0Z M47.05 -4.73L47.05 -5.53C47.05 -6.53 46.9 -7.42 46.59 -8.18C46.28 -8.95 45.81 -9.55 45.17 -9.98C44.53 -10.41 43.72 -10.63 42.75 -10.63C41.95 -10.63 41.2 -10.42 40.51 -9.99C39.81 -9.55 39.25 -8.93 38.82 -8.12C38.4 -7.31 38.19 -6.35 38.19 -5.27L38.19 -4.85C38.19 -3.88 38.38 -3.01 38.78 -2.25C39.18 -1.48 39.74 -0.88 40.46 -0.45C41.19 -0.02 42.03 0.19 42.98 0.19C43.93 0.19 44.73 0 45.37 -0.37C46.02 -0.75 46.53 -1.23 46.92 -1.82L45.83 -2.67C45.48 -2.22 45.09 -1.87 44.65 -1.62C44.2 -1.38 43.68 -1.25 43.08 -1.25C42.46 -1.25 41.92 -1.41 41.46 -1.71C41 -2.02 40.65 -2.43 40.4 -2.96C40.14 -3.49 40.01 -4.08 39.99 -4.73ZM45.25 -6.31L45.25 -6.17L40.05 -6.17C40.17 -7.13 40.47 -7.87 40.95 -8.4C41.43 -8.92 42.03 -9.18 42.75 -9.18C43.59 -9.18 44.2 -8.91 44.59 -8.36C44.98 -7.81 45.2 -7.13 45.25 -6.31Z M75.86 -9.97C75.25 -10.41 74.52 -10.63 73.66 -10.63C72.39 -10.63 71.4 -10.19 70.69 -9.32L70.69 -14.82L68.89 -14.82L68.89 0L70.54 0L70.62 -1.19C71.34 -0.27 72.36 0.19 73.68 0.19C74.52 0.19 75.25 -0.03 75.86 -0.49C76.47 -0.94 76.94 -1.57 77.26 -2.37C77.57 -3.17 77.73 -4.08 77.73 -5.1L77.73 -5.31C77.73 -6.37 77.57 -7.31 77.26 -8.11C76.94 -8.91 76.47 -9.53 75.86 -9.97ZM75.93 -5.31L75.93 -5.1C75.93 -3.98 75.71 -3.07 75.26 -2.37C74.81 -1.66 74.13 -1.31 73.23 -1.31C72.62 -1.31 72.11 -1.46 71.69 -1.76C71.27 -2.05 70.93 -2.45 70.69 -2.94L70.69 -7.51C70.93 -8.01 71.25 -8.4 71.67 -8.7C72.08 -8.99 72.6 -9.14 73.21 -9.14C74.15 -9.14 74.84 -8.78 75.28 -8.08C75.71 -7.38 75.93 -6.45 75.93 -5.31Z M131.89 -13.24C130.96 -13.78 129.87 -14.05 128.64 -14.05L126.55 -14.05L124.68 -14.05L124.68 0L125.55 0L128.48 0C129.77 0 130.9 -0.27 131.86 -0.8C132.82 -1.33 133.55 -2.1 134.07 -3.09C134.59 -4.09 134.85 -5.25 134.85 -6.6L134.85 -7.45C134.85 -8.78 134.59 -9.94 134.07 -10.94C133.55 -11.94 132.83 -12.7 131.89 -13.24ZM133 -7.47L133 -6.6C133 -5.56 132.83 -4.66 132.48 -3.89C132.14 -3.13 131.64 -2.54 130.96 -2.13C130.28 -1.71 129.46 -1.51 128.48 -1.51L126.55 -1.51L126.55 -12.53L128.64 -12.53C129.56 -12.53 130.35 -12.33 131 -11.93C131.66 -11.54 132.15 -10.96 132.49 -10.2C132.83 -9.45 133 -8.54 133 -7.47Z M165.54 -4.73L165.54 -5.53C165.54 -6.53 165.38 -7.42 165.07 -8.18C164.77 -8.95 164.29 -9.55 163.65 -9.98C163.01 -10.41 162.21 -10.63 161.23 -10.63C160.44 -10.63 159.69 -10.42 158.99 -9.99C158.29 -9.55 157.73 -8.93 157.31 -8.12C156.88 -7.31 156.67 -6.35 156.67 -5.27L156.67 -4.85C156.67 -3.88 156.87 -3.01 157.26 -2.25C157.66 -1.48 158.22 -0.88 158.95 -0.45C159.68 -0.02 160.51 0.19 161.47 0.19C162.42 0.19 163.22 0 163.86 -0.37C164.5 -0.75 165.02 -1.23 165.4 -1.82L164.31 -2.67C163.97 -2.22 163.57 -1.87 163.13 -1.62C162.69 -1.38 162.17 -1.25 161.56 -1.25C160.95 -1.25 160.41 -1.41 159.95 -1.71C159.49 -2.02 159.13 -2.43 158.88 -2.96C158.63 -3.49 158.49 -4.08 158.48 -4.73ZM163.73 -6.31L163.73 -6.17L158.53 -6.17C158.66 -7.13 158.96 -7.87 159.44 -8.4C159.91 -8.92 160.51 -9.18 161.23 -9.18C162.07 -9.18 162.68 -8.91 163.07 -8.36C163.46 -7.81 163.68 -7.13 163.73 -6.31Z M188.24 -5.66C188.88 -5.2 189.81 -4.84 191.06 -4.58C191.71 -4.45 192.21 -4.29 192.56 -4.11C192.91 -3.93 193.14 -3.73 193.27 -3.52C193.39 -3.31 193.45 -3.06 193.45 -2.77C193.45 -2.48 193.36 -2.22 193.19 -1.99C193.01 -1.76 192.76 -1.58 192.42 -1.45C192.08 -1.32 191.68 -1.25 191.21 -1.25C190.81 -1.25 190.42 -1.32 190.06 -1.45C189.69 -1.58 189.39 -1.79 189.15 -2.08C188.9 -2.37 188.77 -2.75 188.74 -3.21L186.94 -3.21C186.94 -2.62 187.1 -2.06 187.44 -1.54C187.77 -1.02 188.26 -0.6 188.91 -0.28C189.56 0.03 190.32 0.19 191.21 0.19C192.01 0.19 192.72 0.06 193.33 -0.2C193.94 -0.46 194.42 -0.82 194.75 -1.29C195.09 -1.75 195.25 -2.29 195.25 -2.89C195.25 -3.45 195.12 -3.93 194.85 -4.32C194.59 -4.71 194.18 -5.05 193.63 -5.32C193.09 -5.59 192.37 -5.82 191.5 -6.02C190.85 -6.16 190.35 -6.31 190.01 -6.45C189.67 -6.6 189.43 -6.77 189.3 -6.95C189.16 -7.13 189.1 -7.36 189.1 -7.64C189.1 -7.91 189.17 -8.16 189.31 -8.4C189.46 -8.63 189.69 -8.82 190 -8.97C190.3 -9.11 190.69 -9.18 191.16 -9.18C191.61 -9.18 191.99 -9.1 192.32 -8.92C192.66 -8.74 192.91 -8.52 193.08 -8.24C193.26 -7.96 193.34 -7.68 193.34 -7.38L195.15 -7.38C195.15 -7.99 194.99 -8.53 194.67 -9.03C194.35 -9.52 193.89 -9.91 193.28 -10.2C192.68 -10.49 191.97 -10.63 191.16 -10.63C190.4 -10.63 189.73 -10.49 189.14 -10.22C188.55 -9.94 188.1 -9.57 187.78 -9.11C187.45 -8.64 187.29 -8.14 187.29 -7.58C187.29 -6.77 187.61 -6.13 188.24 -5.66Z M219.18 -13.95C218.99 -14.14 218.73 -14.24 218.4 -14.24C218.06 -14.24 217.8 -14.14 217.62 -13.95C217.44 -13.76 217.35 -13.51 217.35 -13.22C217.35 -12.93 217.44 -12.69 217.62 -12.5C217.8 -12.31 218.06 -12.21 218.4 -12.21C218.73 -12.21 218.99 -12.31 219.18 -12.5C219.37 -12.69 219.47 -12.93 219.47 -13.22C219.47 -13.51 219.37 -13.76 219.18 -13.95ZM217.48 0L219.29 0L219.29 -10.44L217.48 -10.44Z M250.29 -10.44L248.65 -10.44L248.58 -9.29C247.86 -10.18 246.87 -10.63 245.6 -10.63C244.76 -10.63 244.03 -10.41 243.41 -9.97C242.78 -9.52 242.3 -8.9 241.97 -8.09C241.63 -7.29 241.47 -6.36 241.47 -5.31L241.47 -5.1C241.47 -4.09 241.64 -3.18 241.97 -2.38C242.31 -1.58 242.79 -0.95 243.41 -0.49C244.03 -0.04 244.75 0.19 245.58 0.19C246.81 0.19 247.78 -0.22 248.49 -1.03L248.49 -0.14C248.49 0.77 248.24 1.46 247.75 1.94C247.26 2.43 246.59 2.67 245.73 2.67C244.64 2.67 243.7 2.2 242.93 1.25L242 2.31C242.29 2.73 242.66 3.08 243.12 3.35C243.58 3.62 244.05 3.81 244.53 3.94C245.02 4.06 245.46 4.12 245.87 4.12C246.74 4.12 247.51 3.95 248.18 3.61C248.84 3.27 249.36 2.77 249.73 2.12C250.11 1.46 250.29 0.68 250.29 -0.22ZM248.49 -2.85C247.96 -1.82 247.14 -1.31 246.02 -1.31C245.4 -1.31 244.89 -1.48 244.48 -1.81C244.06 -2.15 243.76 -2.6 243.56 -3.17C243.37 -3.74 243.27 -4.38 243.27 -5.1L243.27 -5.31C243.27 -6.03 243.37 -6.68 243.56 -7.26C243.76 -7.83 244.07 -8.29 244.48 -8.63C244.9 -8.97 245.42 -9.14 246.04 -9.14C246.62 -9.14 247.11 -9 247.52 -8.74C247.92 -8.47 248.25 -8.1 248.49 -7.64Z M280.96 -6.84C280.96 -9.37 279.85 -10.63 277.62 -10.63C276.98 -10.63 276.4 -10.5 275.87 -10.25C275.34 -9.99 274.89 -9.63 274.51 -9.16L274.45 -10.44L272.74 -10.44L272.74 0L274.55 0L274.55 -7.47C274.81 -7.98 275.15 -8.38 275.6 -8.68C276.04 -8.99 276.53 -9.14 277.09 -9.14C277.78 -9.14 278.3 -8.96 278.64 -8.6C278.99 -8.24 279.16 -7.66 279.16 -6.86L279.16 0L280.96 0Z"></path></g><defs><linearGradient gradientUnits="userSpaceOnUse" id="SvgjsLinearGradient1165" x1="65.94749915599824" y1="69.4774980545044" x2="215.60249602794644" y2="-80.17749881744385"><stop stop-color="#f5a623" offset="0"></stop><stop stop-color="#ffcb71" offset="1"></stop></linearGradient></defs></svg>
